<?xml version="1.0" encoding="iso-8859-1"?>
<!-- Generator: Adobe Illustrator 18.0.0, SVG Export Plug-In . SVG Version: 6.00 Build 0)  -->
<!DOCTYPE svg PUBLIC "-//W3C//DTD SVG 1.1//EN" "http://www.w3.org/Graphics/SVG/1.1/DTD/svg11.dtd">
<svg version="1.1" id="Capa_1" xmlns="http://www.w3.org/2000/svg" xmlns:xlink="http://www.w3.org/1999/xlink" x="0px" y="0px"
	 viewBox="0 0 341.525 341.525" style="enable-background:new 0 0 341.525 341.525;" xml:space="preserve">
<g>
	<path d="M31.194,282.302h176.699c2.209,0,4-1.791,4-4V101.603c0-2.209-1.791-4-4-4H31.194c-2.209,0-4,1.791-4,4v176.699
		C27.194,280.511,28.985,282.302,31.194,282.302z M157.477,174.616c0,17.893-12.161,33.346-29.261,37.696
		c-6.104-8.307-15.938-13.673-26.951-13.673c-4.063,0-7.959,0.737-11.58,2.061c-6.486-7.166-10.038-16.328-10.038-26.083
		c0-21.458,17.457-38.915,38.915-38.915c8.316,0,16.214,2.597,22.753,7.325c-0.007,0-0.014,0-0.02,0
		c-10.15,0-18.409,8.259-18.409,18.41c0,1.687,0.243,3.395,0.723,5.077c0.49,1.718,2.06,2.903,3.847,2.903h29.662
		C157.347,171.132,157.477,172.87,157.477,174.616z M101.265,206.639c13.445,0,24.593,10.504,25.379,23.913
		c0.084,1.428,0.925,2.704,2.204,3.343c1.28,0.641,2.804,0.548,3.998-0.243c2.46-1.629,5.319-2.491,8.27-2.491
		c6.698,0,12.341,4.322,14.271,10.392h-96.34c-0.046-0.403-0.069-0.807-0.069-1.211c0-6.077,4.943-11.021,11.021-11.021
		c0.582,0,1.2,0.058,1.89,0.177c2.101,0.367,4.112-0.983,4.582-3.06C79.104,214.781,89.3,206.639,101.265,206.639z M130.885,161.415
		c0.011-5.731,4.676-10.39,10.409-10.39c2.644,0,5.173,1.008,7.124,2.837c0.896,0.84,2.125,1.223,3.343,1.036
		c1.215-0.186,2.276-0.92,2.879-1.991c3.634-6.454,10.482-10.462,17.875-10.462c7.096,0,13.596,3.616,17.39,9.673
		c1.151,1.84,3.559,2.425,5.429,1.318c2.163-1.282,4.512-1.932,6.981-1.932c0.534,0,1.059,0.04,1.578,0.099v9.811H130.885z
		 M35.194,105.603h168.699v37.972c-3.129-0.218-6.338,0.23-9.305,1.367c-5.393-6.63-13.411-10.497-22.073-10.497
		c-7.481,0-14.555,2.96-19.801,8.025c-8.842-9.426-21.064-14.77-34.152-14.77c-25.869,0-46.915,21.046-46.915,46.915
		c0,11.047,3.776,21.462,10.714,29.845c-5.853,3.999-10.396,9.836-12.756,16.865c-10.307,0.211-18.627,8.661-18.627,19.017
		c0,2.236,0.403,4.458,1.197,6.601c0.582,1.569,2.078,2.61,3.751,2.61h104.163c1.083,0,2.12-0.439,2.873-1.217
		c0.754-0.778,1.159-1.828,1.125-2.911c-0.398-12.484-10.489-22.264-22.972-22.264c-2.51,0-4.978,0.406-7.321,1.195
		c-0.396-1.676-0.923-3.298-1.56-4.864c19.539-5.922,33.242-24.026,33.242-44.877c0-1.742-0.099-3.479-0.29-5.201h38.706v104.887
		H35.194V105.603z"/>
	<path d="M333.613,79.477l-205.66-79.21c-0.988-0.38-2.091-0.353-3.061,0.077c-0.97,0.43-1.729,1.228-2.109,2.218L94.408,76.243
		H9.349c-2.209,0-4,1.791-4,4v257.282c0,2.209,1.791,4,4,4h220.389c2.209,0,4-1.791,4-4v-12.239l4.54,1.747
		c0.473,0.182,0.958,0.268,1.436,0.268c1.606,0,3.122-0.975,3.733-2.563l92.461-240.09
		C336.702,82.585,335.674,80.271,333.613,79.477z M225.738,333.525H13.349V84.243h212.389V333.525z M229.738,76.243H126.39
		l15.13-39.293l157.425,60.634L238.32,255.009l-4.582-1.765V80.243C233.738,78.034,231.947,76.243,229.738,76.243z M237.418,318.13
		l-3.681-1.416v-54.896l5.439,2.095c0.463,0.178,0.95,0.267,1.438,0.267c0.554,0,1.107-0.115,1.623-0.344
		c0.97-0.43,1.729-1.228,2.109-2.218l63.5-164.89c0.794-2.062-0.233-4.376-2.295-5.17l-164.89-63.51
		c-0.988-0.38-2.09-0.353-3.061,0.077c-0.97,0.43-1.729,1.229-2.109,2.218l-17.675,45.901H102.98L128.81,9.17l198.195,76.334
		L237.418,318.13z"/>
</g>
<g>
</g>
<g>
</g>
<g>
</g>
<g>
</g>
<g>
</g>
<g>
</g>
<g>
</g>
<g>
</g>
<g>
</g>
<g>
</g>
<g>
</g>
<g>
</g>
<g>
</g>
<g>
</g>
<g>
</g>
</svg>
