<?xml version="1.0" encoding="iso-8859-1"?>
<!-- Generator: Adobe Illustrator 19.0.0, SVG Export Plug-In . SVG Version: 6.00 Build 0)  -->
<svg version="1.1" id="Capa_1" xmlns="http://www.w3.org/2000/svg" xmlns:xlink="http://www.w3.org/1999/xlink" x="0px" y="0px"
	 viewBox="0 0 490.7 490.7" style="enable-background:new 0 0 490.7 490.7;" xml:space="preserve">
<g>
	<g>
		<path d="M480,245.3H10.7C4.8,245.3,0,250.1,0,256v213.3c0,5.9,4.8,10.7,10.7,10.7h469.4c5.9,0,10.6-4.8,10.6-10.7V256
			C490.7,250.1,485.9,245.3,480,245.3z M469.4,458.6h-448v-192h448V458.6z"/>
	</g>
</g>
<g>
	<g>
		<path d="M208.6,55c-4.9-3.2-11.6-1.9-14.8,3l-128,192c-3.2,4.9-1.9,11.5,3,14.8c1.8,1.2,3.9,1.8,5.9,1.8c3.5,0,6.9-1.6,8.9-4.8
			l128-192C214.8,64.9,213.5,58.3,208.6,55z"/>
	</g>
</g>
<g>
	<g>
		<path d="M245.4,10.7c-29.4,0-53.3,23.9-53.3,53.3c0,29.4,23.9,53.3,53.3,53.3c29.4,0,53.3-23.9,53.3-53.3
			C298.7,34.6,274.8,10.7,245.4,10.7z M245.4,96c-17.6,0-32-14.4-32-32c0-17.6,14.4-32,32-32c17.6,0,32,14.4,32,32
			C277.4,81.6,263,96,245.4,96z"/>
	</g>
</g>
<g>
	<g>
		<path d="M414.4,239.5L297,58.2c-3.2-5-9.8-6.4-14.7-3.2c-5,3.2-6.4,9.8-3.2,14.7l117.3,181.4c2.1,3.2,5.5,4.9,9,4.9
			c2,0,4-0.6,5.8-1.8C416.2,251,417.6,244.4,414.4,239.5z"/>
	</g>
</g>
<g>
	<g>
		<path d="M437.4,416h-53.3V309.3h53.3c5.9,0,10.7-4.8,10.7-10.7s-4.8-10.7-10.7-10.7h-64c-5.9,0-10.7,4.8-10.7,10.7v128
			c0,5.9,4.8,10.7,10.7,10.7h64c5.9,0,10.7-4.8,10.7-10.6C448.1,420.8,443.3,416,437.4,416z"/>
	</g>
</g>
<g>
	<g>
		<path d="M416.1,351.9h-42.7c-5.9,0-10.7,4.8-10.7,10.7s4.8,10.7,10.7,10.7h42.7c5.9,0,10.6-4.8,10.7-10.7
			C426.8,356.7,422,351.9,416.1,351.9z"/>
	</g>
</g>
<g>
	<g>
		<path d="M330.7,415.9h-53.3V298.6c0-5.9-4.8-10.7-10.7-10.7c-5.9,0-10.7,4.8-10.7,10.7v128c0,5.9,4.8,10.7,10.7,10.7h64
			c5.9,0,10.7-4.8,10.7-10.7S336.6,415.9,330.7,415.9z"/>
	</g>
</g>
<g>
	<g>
		<path d="M89.5,352.4l-3.2-0.8c-15.8-3.9-22.3-10-22.3-21.2c0-11.7,9.6-21.3,21.4-21.3c11.2,0,20.6,8.8,21.3,20
			c0.4,5.9,5.3,10.2,11.3,10c5.9-0.4,10.4-5.4,10-11.3c-1.4-22.4-20.1-39.9-42.6-39.9c-23.6,0-42.7,19.2-42.7,42.7
			c0,14.9,6.7,34.2,38.6,42.1l3.2,0.8c15.8,3.9,22.3,10,22.3,21.2c0,11.7-9.6,21.3-21.4,21.3c-11.2,0-20.6-8.8-21.3-20
			c-0.4-5.9-5.5-10.4-11.3-10c-5.9,0.4-10.4,5.4-10,11.3c1.4,22.4,20.1,40,42.6,40c23.5,0,42.7-19.1,42.6-43
			C128,379.5,121.4,360.2,89.5,352.4z"/>
	</g>
</g>
<g>
	<g>
		<path d="M234.2,423.2l-42.7-128c-2.9-8.7-17.3-8.7-20.2,0l-42.7,128c-1.9,5.6,1.1,11.6,6.7,13.5c5.6,1.9,11.6-1.1,13.5-6.7
			l32.6-97.6L214,430c1.5,4.5,5.6,7.3,10.1,7.3c1.1,0,2.2-0.2,3.4-0.6C233,434.8,236.1,428.8,234.2,423.2z"/>
	</g>
</g>
<g>
	<g>
		<path d="M202.7,373.2H160c-5.9,0-10.7,4.8-10.7,10.7s4.8,10.7,10.7,10.7h42.7c5.9,0,10.7-4.8,10.7-10.7S208.6,373.2,202.7,373.2z"
			/>
	</g>
</g>
<g>
</g>
<g>
</g>
<g>
</g>
<g>
</g>
<g>
</g>
<g>
</g>
<g>
</g>
<g>
</g>
<g>
</g>
<g>
</g>
<g>
</g>
<g>
</g>
<g>
</g>
<g>
</g>
<g>
</g>
</svg>
