<?xml version="1.0" encoding="iso-8859-1"?>
<!-- Generator: Adobe Illustrator 19.0.0, SVG Export Plug-In . SVG Version: 6.00 Build 0)  -->
<svg version="1.1" id="Capa_1" xmlns="http://www.w3.org/2000/svg" xmlns:xlink="http://www.w3.org/1999/xlink" x="0px" y="0px"
	 viewBox="0 0 463.879 463.879" style="enable-background:new 0 0 463.879 463.879;" xml:space="preserve">
<g>
	<path d="M448.379,43.44H15.5C6.953,43.44,0,50.393,0,58.94v346c0,8.547,6.953,15.5,15.5,15.5h432.879c8.547,0,15.5-6.953,15.5-15.5
		v-346C463.879,50.393,456.926,43.44,448.379,43.44z M15,69.047l21.2,21.2v283.387l-21.2,21.2V69.047z M51.2,369.24V94.64h361.48
		v274.6H51.2z M417.073,79.64H46.806l-21.2-21.2h412.667L417.073,79.64z M46.806,384.24h370.267l21.2,21.2H25.606L46.806,384.24z
		 M427.68,373.633V90.247l21.2-21.2v325.786L427.68,373.633z"/>
	<path d="M383.979,115.84H79.9c-4.142,0-7.5,3.358-7.5,7.5v180.997c0,0.002,0,0.003,0,0.005v36.197c0,4.142,3.358,7.5,7.5,7.5
		h304.08c4.142,0,7.5-3.358,7.5-7.5v-217.2C391.479,119.198,388.122,115.84,383.979,115.84z M376.479,130.84v166h-54.553
		l-99.164-99.163c-2.929-2.929-7.678-2.929-10.606,0l-48.997,48.997l-12.797-12.797c-1.406-1.407-3.314-2.197-5.303-2.197
		s-3.897,0.79-5.303,2.197L87.4,286.233V130.84H376.479z M87.4,333.04v-25.593l57.66-57.66l38.137,38.137
		c2.929,2.929,7.678,2.929,10.606,0c2.929-2.929,2.929-7.678,0-10.606l-20.037-20.037l43.693-43.693l96.057,96.057
		c1.406,1.407,3.314,2.197,5.303,2.197h57.66v21.2H87.4z"/>
	<path d="M304.34,210.48c16.112,0,29.22-13.108,29.22-29.22c0-16.112-13.108-29.22-29.22-29.22c-16.112,0-29.22,13.108-29.22,29.22
		C275.12,197.372,288.228,210.48,304.34,210.48z M304.34,167.04c7.841,0,14.22,6.379,14.22,14.22s-6.379,14.22-14.22,14.22
		s-14.22-6.379-14.22-14.22S296.499,167.04,304.34,167.04z"/>
</g>
<g>
</g>
<g>
</g>
<g>
</g>
<g>
</g>
<g>
</g>
<g>
</g>
<g>
</g>
<g>
</g>
<g>
</g>
<g>
</g>
<g>
</g>
<g>
</g>
<g>
</g>
<g>
</g>
<g>
</g>
</svg>
